<svg width="139" height="179" viewBox="0 0 139 179" fill="none" xmlns="http://www.w3.org/2000/svg">
<path d="M64.668 42.3535C64.668 45.9928 64.0247 49.1836 62.7383 51.9258C61.4518 54.668 59.6068 56.7839 57.2031 58.2734C54.8164 59.763 52.0742 60.5078 48.9766 60.5078C45.9128 60.5078 43.179 59.7715 40.7754 58.2988C38.3717 56.8262 36.5098 54.7272 35.1895 52.002C33.8691 49.2598 33.2005 46.1113 33.1836 42.5566V40.7285C33.1836 37.0892 33.8353 33.89 35.1387 31.1309C36.459 28.3548 38.3125 26.2305 40.6992 24.7578C43.1029 23.2682 45.8451 22.5234 48.9258 22.5234C52.0065 22.5234 54.7402 23.2682 57.127 24.7578C59.5306 26.2305 61.3841 28.3548 62.6875 31.1309C64.0078 33.89 64.668 37.0807 64.668 40.7031V42.3535ZM56.9492 40.6777C56.9492 36.8014 56.2552 33.8561 54.8672 31.8418C53.4792 29.8275 51.4987 28.8203 48.9258 28.8203C46.3698 28.8203 44.3978 29.819 43.0098 31.8164C41.6217 33.7969 40.9193 36.7083 40.9023 40.5508V42.3535C40.9023 46.1283 41.5964 49.0566 42.9844 51.1387C44.3724 53.2207 46.3698 54.2617 48.9766 54.2617C51.5326 54.2617 53.4961 53.263 54.8672 51.2656C56.2383 49.2513 56.9323 46.3229 56.9492 42.4805V40.6777ZM100.291 60H92.6738V44.1562H77.8203V60H70.2031V23.0312H77.8203V38.0117H92.6738V23.0312H100.291V60ZM44.2539 84.0312L53.75 110.844L63.1953 84.0312H73.1992V121H65.5566V110.895L66.3184 93.4512L56.3398 121H51.1094L41.1562 93.4766L41.918 110.895V121H34.3008V84.0312H44.2539ZM91.8867 100.688L99.5801 84.0312H107.908L95.7715 107.594V121H88.0273V107.594L75.8906 84.0312H84.2441L91.8867 100.688Z" fill="white"/>
<path d="M31.666 157.96H20.9785V169H15.4121V141.984H33.002V146.493H20.9785V153.47H31.666V157.96ZM58.4219 156.104C58.4219 158.764 57.9518 161.096 57.0117 163.1C56.0716 165.104 54.7233 166.65 52.9668 167.738C51.2227 168.827 49.2188 169.371 46.9551 169.371C44.7161 169.371 42.7184 168.833 40.9619 167.757C39.2054 166.681 37.8447 165.147 36.8799 163.155C35.915 161.151 35.4264 158.851 35.4141 156.253V154.917C35.4141 152.257 35.8903 149.92 36.8428 147.903C37.8076 145.875 39.1621 144.322 40.9062 143.246C42.6628 142.158 44.6667 141.613 46.918 141.613C49.1693 141.613 51.167 142.158 52.9111 143.246C54.6676 144.322 56.0221 145.875 56.9746 147.903C57.9395 149.92 58.4219 152.251 58.4219 154.898V156.104ZM52.7812 154.88C52.7812 152.047 52.2741 149.895 51.2598 148.423C50.2454 146.951 48.7982 146.215 46.918 146.215C45.0501 146.215 43.609 146.945 42.5947 148.404C41.5804 149.852 41.0671 151.979 41.0547 154.787V156.104C41.0547 158.863 41.5618 161.003 42.5762 162.524C43.5905 164.046 45.0501 164.807 46.9551 164.807C48.8229 164.807 50.2578 164.077 51.2598 162.617C52.2617 161.145 52.7689 159.005 52.7812 156.197V154.88ZM84.6582 156.104C84.6582 158.764 84.1882 161.096 83.248 163.1C82.3079 165.104 80.9596 166.65 79.2031 167.738C77.459 168.827 75.4551 169.371 73.1914 169.371C70.9525 169.371 68.9548 168.833 67.1982 167.757C65.4417 166.681 64.0811 165.147 63.1162 163.155C62.1514 161.151 61.6628 158.851 61.6504 156.253V154.917C61.6504 152.257 62.1266 149.92 63.0791 147.903C64.0439 145.875 65.3984 144.322 67.1426 143.246C68.8991 142.158 70.903 141.613 73.1543 141.613C75.4056 141.613 77.4033 142.158 79.1475 143.246C80.904 144.322 82.2585 145.875 83.2109 147.903C84.1758 149.92 84.6582 152.251 84.6582 154.898V156.104ZM79.0176 154.88C79.0176 152.047 78.5104 149.895 77.4961 148.423C76.4818 146.951 75.0345 146.215 73.1543 146.215C71.2865 146.215 69.8454 146.945 68.8311 148.404C67.8167 149.852 67.3034 151.979 67.291 154.787V156.104C67.291 158.863 67.7982 161.003 68.8125 162.524C69.8268 164.046 71.2865 164.807 73.1914 164.807C75.0592 164.807 76.4941 164.077 77.4961 162.617C78.498 161.145 79.0052 159.005 79.0176 156.197V154.88ZM88.7031 169V141.984H97.0156C99.3906 141.984 101.512 142.522 103.38 143.599C105.26 144.662 106.726 146.184 107.777 148.163C108.829 150.13 109.354 152.369 109.354 154.88V156.123C109.354 158.634 108.835 160.867 107.796 162.821C106.769 164.776 105.316 166.291 103.436 167.367C101.555 168.443 99.4339 168.988 97.0713 169H88.7031ZM94.2695 146.493V164.528H96.96C99.137 164.528 100.801 163.817 101.951 162.395C103.102 160.972 103.689 158.937 103.714 156.29V154.861C103.714 152.115 103.145 150.037 102.007 148.627C100.869 147.204 99.2051 146.493 97.0156 146.493H94.2695ZM118.521 160.706H114.067L113.437 141.984H119.151L118.521 160.706ZM116.294 163.638C117.197 163.638 117.921 163.904 118.465 164.436C119.021 164.967 119.3 165.648 119.3 166.477C119.3 167.293 119.021 167.967 118.465 168.499C117.921 169.031 117.197 169.297 116.294 169.297C115.403 169.297 114.68 169.031 114.123 168.499C113.579 167.967 113.307 167.293 113.307 166.477C113.307 165.66 113.579 164.986 114.123 164.454C114.68 163.91 115.403 163.638 116.294 163.638Z" fill="white"/>
</svg>
